<?xml version="1.0" encoding="UTF-8"?>
<svg version="1.1" xmlns="http://www.w3.org/2000/svg" width="170" height="40">
<path d="M0 0 C1.94712891 -0.03673828 1.94712891 -0.03673828 3.93359375 -0.07421875 C17.24938353 -0.11493982 17.24938353 -0.11493982 22.75 4.375 C26.61385401 8.71875944 27.37761117 12.6038786 27.5 18.25 C27.5825 20.60125 27.665 22.9525 27.75 25.375 C28.08 19.435 28.41 13.495 28.75 7.375 C38.89938489 6.89169596 38.89938489 6.89169596 42.5 8.9375 C44.29082034 12.42959967 43.70158006 14.63664975 42.75 18.375 C41.76 19.86 41.76 19.86 40.75 21.375 C41.41 21.375 42.07 21.375 42.75 21.375 C44.73 16.755 46.71 12.135 48.75 7.375 C50.4 7.375 52.05 7.375 53.75 7.375 C54.39834654 8.644553 55.04357815 9.91569706 55.6875 11.1875 C56.22697266 12.24904297 56.22697266 12.24904297 56.77734375 13.33203125 C57.75 15.375 57.75 15.375 58.75 18.375 C59.08 14.745 59.41 11.115 59.75 7.375 C70.49695122 6.94512195 70.49695122 6.94512195 74.75 10.375 C75.245 10.87 75.245 10.87 75.75 11.375 C76.08 10.055 76.41 8.735 76.75 7.375 C88.3 7.375 99.85 7.375 111.75 7.375 C110.10848487 11.47878782 108.36539709 14.91201601 106.125 18.6875 C105.49335938 19.75613281 104.86171875 20.82476563 104.2109375 21.92578125 C103.72882813 22.73402344 103.24671875 23.54226562 102.75 24.375 C106.38 24.375 110.01 24.375 113.75 24.375 C114.183125 22.89 114.61625 21.405 115.0625 19.875 C115.62096023 18.04043206 116.18347983 16.20709505 116.75 14.375 C116.98976562 13.57964844 117.22953125 12.78429687 117.4765625 11.96484375 C118.1875 9.8125 118.1875 9.8125 119.75 6.375 C121.66015625 5.53515625 121.66015625 5.53515625 123.75 5.375 C127.67337122 7.99058081 128.42827316 11.1119 129.9375 15.375 C130.34645508 16.48101563 130.34645508 16.48101563 130.76367188 17.609375 C132.75 23.06555451 132.75 23.06555451 132.75 25.375 C133.41 25.375 134.07 25.375 134.75 25.375 C135.08 26.365 135.41 27.355 135.75 28.375 C135.75 20.785 135.75 13.195 135.75 5.375 C137.73 5.375 139.71 5.375 141.75 5.375 C142.77820502 8.45961506 142.79582849 10.27185239 142.62890625 13.48046875 C142.58056641 14.46337891 142.53222656 15.44628906 142.48242188 16.45898438 C142.42634766 17.48314453 142.37027344 18.50730469 142.3125 19.5625 C142.26029297 20.59826172 142.20808594 21.63402344 142.15429688 22.70117188 C142.02461825 25.25937752 141.88797109 27.81722819 141.75 30.375 C137.46 30.375 133.17 30.375 128.75 30.375 C127.76 28.395 127.76 28.395 126.75 26.375 C124.07209537 25.53613831 121.5762059 25.55733586 118.75 25.375 C118.42 27.025 118.09 28.675 117.75 30.375 C109.5 30.045 101.25 29.715 92.75 29.375 C94.38231366 25.29421584 96.0083317 22.20015683 98.375 18.5625 C99.32246094 17.09876953 99.32246094 17.09876953 100.2890625 15.60546875 C100.77117187 14.86941406 101.25328125 14.13335937 101.75 13.375 C96.8 12.88 96.8 12.88 91.75 12.375 C91.75 17.985 91.75 23.595 91.75 29.375 C89.77 29.375 87.79 29.375 85.75 29.375 C85.75 23.765 85.75 18.155 85.75 12.375 C84.76 12.375 83.77 12.375 82.75 12.375 C82.75 17.985 82.75 23.595 82.75 29.375 C80.77 29.375 78.79 29.375 76.75 29.375 C76.255 27.395 76.255 27.395 75.75 25.375 C75.028125 26.035 74.30625 26.695 73.5625 27.375 C68.64646413 30.75551862 62.43858582 29.67884138 56.75 29.375 C56.255 27.395 56.255 27.395 55.75 25.375 C51.79 25.87 51.79 25.87 47.75 26.375 C47.255 27.86 47.255 27.86 46.75 29.375 C43.5625 29.75 43.5625 29.75 39.75 29.375 C37.6096502 27.56311972 36.36011698 25.71698833 34.75 23.375 C34.42 25.355 34.09 27.335 33.75 29.375 C30.78 29.87 30.78 29.87 27.75 30.375 C27.42 31.695 27.09 33.015 26.75 34.375 C20.87846769 34.47411689 15.00742587 34.54658611 9.13525391 34.59472656 C7.13907382 34.61480169 5.14295225 34.64206789 3.14697266 34.67675781 C0.2723138 34.72545657 -2.6015654 34.74800986 -5.4765625 34.765625 C-6.80815903 34.79659271 -6.80815903 34.79659271 -8.16665649 34.82818604 C-13.71189929 34.83017951 -16.85700025 34.08479474 -21.25 30.375 C-26.36046863 24.5739275 -26.82441893 20.56115151 -26.80078125 12.87890625 C-26.18296595 8.94854933 -25.45276503 7.70524551 -22.5 5.125 C-20.390625 3.609375 -20.390625 3.609375 -18.25 2.375 C-17.67894531 2.02646973 -17.10789062 1.67793945 -16.51953125 1.31884766 C-11.45073698 -0.78915134 -5.40658898 0.00530578 0 0 Z M33.75 12.375 C33.75 13.695 33.75 15.015 33.75 16.375 C35.07 16.375 36.39 16.375 37.75 16.375 C37.75 15.055 37.75 13.735 37.75 12.375 C36.43 12.375 35.11 12.375 33.75 12.375 Z M65.75 12.375 C65.75 16.335 65.75 20.295 65.75 24.375 C67.4 23.715 69.05 23.055 70.75 22.375 C71.08 20.065 71.41 17.755 71.75 15.375 C69.07752366 13.03212582 69.07752366 13.03212582 65.75 12.375 Z M-13.25 13.375 C-13.91 15.025 -14.57 16.675 -15.25 18.375 C-13.49755753 20.0233633 -13.49755753 20.0233633 -11.25 21.375 C-9.04199472 21.15782648 -9.04199472 21.15782648 -7.25 20.375 C-6.47757731 18.53799211 -6.47757731 18.53799211 -6.25 16.375 C-7.35338257 14.52146548 -7.35338257 14.52146548 -9.25 13.375 C-10.57 13.375 -11.89 13.375 -13.25 13.375 Z M8.75 13.375 C8.42 14.365 8.09 15.355 7.75 16.375 C9.12249963 19.05176547 9.12249963 19.05176547 10.75 21.375 C12.4 20.715 14.05 20.055 15.75 19.375 C15.37095792 16.08424004 15.37095792 16.08424004 13.75 13.375 C12.08382885 13.33436168 10.41611905 13.332279 8.75 13.375 Z M50.75 15.375 C50.42 17.025 50.09 18.675 49.75 20.375 C50.74 20.375 51.73 20.375 52.75 20.375 C52.42 18.725 52.09 17.075 51.75 15.375 C51.42 15.375 51.09 15.375 50.75 15.375 Z M122.75 15.375 C122.09 17.025 121.43 18.675 120.75 20.375 C121.74 20.375 122.73 20.375 123.75 20.375 C123.75 18.725 123.75 17.075 123.75 15.375 C123.42 15.375 123.09 15.375 122.75 15.375 Z " fill="#F0EFEF" transform="translate(26.25,2.625)"/>
<path d="M0 0 C1.94712891 -0.03673828 1.94712891 -0.03673828 3.93359375 -0.07421875 C17.2431277 -0.11492069 17.2431277 -0.11492069 22.75 4.375 C26.83381195 8.92627533 27.35668932 12.7171945 27.4375 18.5625 C27.54713847 24.04579369 27.54713847 24.04579369 28.75 29.375 C27.8125 32.0625 27.8125 32.0625 26.75 34.375 C20.87846769 34.47411689 15.00742587 34.54658611 9.13525391 34.59472656 C7.13907382 34.61480169 5.14295225 34.64206789 3.14697266 34.67675781 C0.2723138 34.72545657 -2.6015654 34.74800986 -5.4765625 34.765625 C-6.80815903 34.79659271 -6.80815903 34.79659271 -8.16665649 34.82818604 C-13.71189929 34.83017951 -16.85700025 34.08479474 -21.25 30.375 C-26.36046863 24.5739275 -26.82441893 20.56115151 -26.80078125 12.87890625 C-26.18296595 8.94854933 -25.45276503 7.70524551 -22.5 5.125 C-20.390625 3.609375 -20.390625 3.609375 -18.25 2.375 C-17.67894531 2.02646973 -17.10789062 1.67793945 -16.51953125 1.31884766 C-11.45073698 -0.78915134 -5.40658898 0.00530578 0 0 Z M-13.25 13.375 C-13.91 15.025 -14.57 16.675 -15.25 18.375 C-13.49755753 20.0233633 -13.49755753 20.0233633 -11.25 21.375 C-9.04199472 21.15782648 -9.04199472 21.15782648 -7.25 20.375 C-6.47757731 18.53799211 -6.47757731 18.53799211 -6.25 16.375 C-7.35338257 14.52146548 -7.35338257 14.52146548 -9.25 13.375 C-10.57 13.375 -11.89 13.375 -13.25 13.375 Z M8.75 13.375 C8.42 14.365 8.09 15.355 7.75 16.375 C9.12249963 19.05176547 9.12249963 19.05176547 10.75 21.375 C12.4 20.715 14.05 20.055 15.75 19.375 C15.37095792 16.08424004 15.37095792 16.08424004 13.75 13.375 C12.08382885 13.33436168 10.41611905 13.332279 8.75 13.375 Z " fill="#4107D4" transform="translate(26.25,2.625)"/>
<path d="M0 0 C2.02011842 -0.0118859 4.03716794 -0.06106081 6.05664062 -0.11157227 C7.33539062 -0.11866211 8.61414063 -0.12575195 9.93164062 -0.13305664 C11.10130371 -0.14651123 12.2709668 -0.15996582 13.47607422 -0.17382812 C17.58107802 0.59936386 19.03621788 2.25518818 21.65820312 5.42553711 C23.06820976 8.24555038 22.90368763 10.29560966 22.65820312 13.42553711 C20.934083 17.21860137 19.5196691 18.93528415 15.65820312 20.42553711 C11.02459103 20.90760485 6.37679347 20.84192637 1.72070312 20.86303711 C-0.19258789 20.91234375 -0.19258789 20.91234375 -2.14453125 20.96264648 C-12.59129745 21.02290575 -12.59129745 21.02290575 -15.65820312 18.11303711 C-17.79211838 14.70669442 -18.34179688 12.44834498 -18.34179688 8.42553711 C-14.81634139 -0.91691992 -8.87832148 0.02475769 0 0 Z M-11.34179688 6.42553711 C-12.00179688 8.07553711 -12.66179688 9.72553711 -13.34179688 11.42553711 C-11.5893544 13.07390041 -11.5893544 13.07390041 -9.34179688 14.42553711 C-7.13379159 14.20836359 -7.13379159 14.20836359 -5.34179688 13.42553711 C-4.56937418 11.58852922 -4.56937418 11.58852922 -4.34179688 9.42553711 C-5.44517945 7.57200259 -5.44517945 7.57200259 -7.34179688 6.42553711 C-8.66179688 6.42553711 -9.98179688 6.42553711 -11.34179688 6.42553711 Z M10.65820312 6.42553711 C10.32820313 7.41553711 9.99820313 8.40553711 9.65820312 9.42553711 C11.03070276 12.10230258 11.03070276 12.10230258 12.65820312 14.42553711 C14.30820312 13.76553711 15.95820312 13.10553711 17.65820312 12.42553711 C17.27916105 9.13477714 17.27916105 9.13477714 15.65820312 6.42553711 C13.99203197 6.38489879 12.32432218 6.38281611 10.65820312 6.42553711 Z " fill="#8F90F8" transform="translate(24.341796875,9.574462890625)"/>
<path d="M0 0 C3.84679775 2.32786551 4.52219338 5.42013979 5.89453125 9.5625 C6.15814453 10.29984375 6.42175781 11.0371875 6.69335938 11.796875 C8.58203125 17.17345779 8.58203125 17.17345779 8.58203125 19.5625 C9.24203125 19.5625 9.90203125 19.5625 10.58203125 19.5625 C10.91203125 20.5525 11.24203125 21.5425 11.58203125 22.5625 C11.58203125 14.9725 11.58203125 7.3825 11.58203125 -0.4375 C13.56203125 -0.4375 15.54203125 -0.4375 17.58203125 -0.4375 C18.61023627 2.64711506 18.62785974 4.45935239 18.4609375 7.66796875 C18.41259766 8.65087891 18.36425781 9.63378906 18.31445312 10.64648438 C18.25837891 11.67064453 18.20230469 12.69480469 18.14453125 13.75 C18.09232422 14.78576172 18.04011719 15.82152344 17.98632812 16.88867188 C17.8566495 19.44687752 17.72000234 22.00472819 17.58203125 24.5625 C13.29203125 24.5625 9.00203125 24.5625 4.58203125 24.5625 C3.92203125 23.2425 3.26203125 21.9225 2.58203125 20.5625 C-0.09587338 19.72363831 -2.59176285 19.74483586 -5.41796875 19.5625 C-5.74796875 21.2125 -6.07796875 22.8625 -6.41796875 24.5625 C-8.39796875 24.5625 -10.37796875 24.5625 -12.41796875 24.5625 C-12.96554496 20.18189033 -11.57664108 17.62273273 -9.56640625 13.89453125 C-7.80490846 10.31761227 -6.60532193 6.56335026 -5.34765625 2.78515625 C-4.05859518 -0.29667463 -3.263864 -0.59055374 0 0 Z M-1.41796875 9.5625 C-2.07796875 11.2125 -2.73796875 12.8625 -3.41796875 14.5625 C-2.42796875 14.5625 -1.43796875 14.5625 -0.41796875 14.5625 C-0.41796875 12.9125 -0.41796875 11.2625 -0.41796875 9.5625 C-0.74796875 9.5625 -1.07796875 9.5625 -1.41796875 9.5625 Z " fill="#4F29DF" transform="translate(150.41796875,8.4375)"/>
<path d="M0 0 C10.89 0 21.78 0 33 0 C31.98787713 4.04849147 30.56619189 6.68927901 28.4375 10.25 C27.47650391 11.86648437 27.47650391 11.86648437 26.49609375 13.515625 C26.00238281 14.33546875 25.50867188 15.1553125 25 16 C28.3 16 31.6 16 35 16 C34.505 18.475 34.505 18.475 34 21 C27.73 21 21.46 21 15 21 C16.60805588 16.97986031 18.21271178 13.80742436 20.5 10.1875 C21.1084375 9.21167969 21.716875 8.23585938 22.34375 7.23046875 C22.8903125 6.49441406 23.436875 5.75835937 24 5 C24.66 5 25.32 5 26 5 C26 4.34 26 3.68 26 3 C21.71 3 17.42 3 13 3 C13 8.61 13 14.22 13 20 C11.68 20 10.36 20 9 20 C9 14.39 9 8.78 9 3 C7.35 3 5.7 3 4 3 C4 8.61 4 14.22 4 20 C2.68 20 1.36 20 0 20 C-0.20142739 18.54352502 -0.38510286 17.08459673 -0.5625 15.625 C-0.66691406 14.81289063 -0.77132812 14.00078125 -0.87890625 13.1640625 C-1.04709361 8.76948965 -0.43759647 4.37596468 0 0 Z " fill="#F5F5F5" transform="translate(104,11)"/>
<path d="M0 0 C1.9950268 -0.0170906 3.98976597 -0.06096553 5.984375 -0.10522461 C19.41851094 -0.19360708 19.41851094 -0.19360708 24.8984375 4.29516602 C28.98224945 8.84644134 29.50512682 12.63736052 29.5859375 18.48266602 C29.69557597 23.9659597 29.69557597 23.9659597 30.8984375 29.29516602 C30.2384375 30.94516602 29.5784375 32.59516602 28.8984375 34.29516602 C17.3484375 34.29516602 5.7984375 34.29516602 -6.1015625 34.29516602 C-6.4315625 33.63516602 -6.7615625 32.97516602 -7.1015625 32.29516602 C4.4484375 32.29516602 15.9984375 32.29516602 27.8984375 32.29516602 C27.5684375 30.64516602 27.2384375 28.99516602 26.8984375 27.29516602 C26.68145263 24.86011364 26.49553005 22.42215217 26.3359375 19.98266602 C26.25214844 18.7284082 26.16835938 17.47415039 26.08203125 16.18188477 C26.02144531 15.22926758 25.96085937 14.27665039 25.8984375 13.29516602 C25.5684375 15.93516602 25.2384375 18.57516602 24.8984375 21.29516602 C23.9084375 20.96516602 22.9184375 20.63516602 21.8984375 20.29516602 C21.9396875 19.38766602 21.9809375 18.48016602 22.0234375 17.54516602 C21.90123655 14.36794136 21.65446619 12.88299777 19.8984375 10.29516602 C16.31421454 7.90568404 14.52611154 7.99283433 10.26171875 7.88110352 C8.96298828 7.84243164 7.66425781 7.80375977 6.32617188 7.76391602 C4.95443177 7.73246085 3.58268689 7.70121351 2.2109375 7.67016602 C0.82744965 7.63197405 -0.55601473 7.5929216 -1.93945312 7.55297852 C-5.326687 7.45856085 -8.71391319 7.37298483 -12.1015625 7.29516602 C-12.1015625 6.96516602 -12.1015625 6.63516602 -12.1015625 6.29516602 C-2.8615625 5.96516602 6.3784375 5.63516602 15.8984375 5.29516602 C15.4034375 4.30516602 15.4034375 4.30516602 14.8984375 3.29516602 C10.5026181 3.26609018 6.10682351 3.24834162 1.7109375 3.23266602 C0.46505859 3.22428711 -0.78082031 3.2159082 -2.06445312 3.20727539 C-3.26650391 3.20405273 -4.46855469 3.20083008 -5.70703125 3.19750977 C-6.81199951 3.19227295 -7.91696777 3.18703613 -9.05541992 3.18164062 C-11.85955629 3.28614679 -14.37573579 3.65418642 -17.1015625 4.29516602 C-12.09931547 -0.93445588 -6.95994955 0.04146857 0 0 Z " fill="#3D0DCD" transform="translate(24.1015625,2.704833984375)"/>
<path d="M0 0 C1.24845703 -0.01611328 2.49691406 -0.03222656 3.78320312 -0.04882812 C5.56694336 -0.04979492 5.56694336 -0.04979492 7.38671875 -0.05078125 C8.47557373 -0.05376221 9.56442871 -0.05674316 10.6862793 -0.05981445 C11.98625854 0.1244812 11.98625854 0.1244812 13.3125 0.3125 C13.9725 1.3025 14.6325 2.2925 15.3125 3.3125 C14.3125 4.3125 14.3125 4.3125 11.62866211 4.42602539 C10.46085205 4.42078857 9.29304199 4.41555176 8.08984375 4.41015625 C6.82978516 4.40693359 5.56972656 4.40371094 4.27148438 4.40039062 C2.93098891 4.39203403 1.59049412 4.38356907 0.25 4.375 C-1.09439942 4.3699866 -2.4388006 4.36542342 -3.78320312 4.36132812 C-7.08467941 4.34949488 -10.38606803 4.33300971 -13.6875 4.3125 C-14.0175 5.3025 -14.3475 6.2925 -14.6875 7.3125 C-15.66600195 8.33354551 -16.66730427 9.3331121 -17.6875 10.3125 C-18.6775 11.7975 -18.6775 11.7975 -19.6875 13.3125 C-19.6875 12.6525 -19.6875 11.9925 -19.6875 11.3125 C-20.6775 11.6425 -21.6675 11.9725 -22.6875 12.3125 C-23.0175 10.9925 -23.3475 9.6725 -23.6875 8.3125 C-22.0375 7.9825 -20.3875 7.6525 -18.6875 7.3125 C-19.0175 6.3225 -19.3475 5.3325 -19.6875 4.3125 C-18.6875 2.3125 -18.6875 2.3125 -16.52026367 1.20629883 C-11.16596851 -0.48309828 -5.56805114 -0.01450769 0 0 Z " fill="#4108D5" transform="translate(25.6875,4.6875)"/>
<path d="M0 0 C-0.33 1.32 -0.66 2.64 -1 4 C-0.34 4.33 0.32 4.66 1 5 C-0.65 5.33 -2.3 5.66 -4 6 C-3.67 6.99 -3.34 7.98 -3 9 C-2.34 9 -1.68 9 -1 9 C-1 14 -1 19 -1 24 C1.27018168 25.64599355 1.27018168 25.64599355 4 27 C5.34631825 27.98244845 6.68441297 28.97676564 8 30 C2.18564666 29.71637301 -1.19901923 27.18303812 -5 23 C-8.45809951 17.80710638 -7.70877883 10.9439175 -7 5 C-5.44738608 2.00443634 -3.58468411 0 0 0 Z " fill="#3808B8" transform="translate(7,7)"/>
<path d="M0 0 C2.5 1.4375 2.5 1.4375 3.8125 4.25 C4.43054239 7.11546925 4.67143333 9.52313333 4.5 12.4375 C3.18 12.7675 1.86 13.0975 0.5 13.4375 C-0.16 12.4475 -0.82 11.4575 -1.5 10.4375 C-2.49 10.4375 -3.48 10.4375 -4.5 10.4375 C-6.1083124 12.30405232 -6.1083124 12.30405232 -7.5 14.4375 C-8.16 15.0975 -8.82 15.7575 -9.5 16.4375 C-8.83961404 12.70665971 -7.83952078 9.25352029 -6.5625 5.6875 C-6.22347656 4.72328125 -5.88445312 3.7590625 -5.53515625 2.765625 C-4.11684362 -0.42424038 -3.40350031 -0.76578757 0 0 Z " fill="#6D5CF8" transform="translate(150.5,8.5625)"/>
<path d="M0 0 C1.60495567 0.11442461 3.20898119 0.24194694 4.8125 0.375 C5.70582031 0.44460938 6.59914063 0.51421875 7.51953125 0.5859375 C10 1 10 1 13 3 C13.1875 6.625 13.1875 6.625 13 10 C11.906875 10.268125 10.81375 10.53625 9.6875 10.8125 C6.38307337 11.87663739 5.05039578 12.34654664 3 15 C0.03116847 12.60578102 -0.93484821 11.26060717 -1.875 7.5 C-2.0002453 3.99313156 -1.65343209 2.92234508 0 0 Z M5 2 C4.34 3.65 3.68 5.3 3 7 C4.75244247 8.6483633 4.75244247 8.6483633 7 10 C9.20800528 9.78282648 9.20800528 9.78282648 11 9 C11.77242269 7.16299211 11.77242269 7.16299211 12 5 C10.89661743 3.14646548 10.89661743 3.14646548 9 2 C7.68 2 6.36 2 5 2 Z " fill="#8080E7" transform="translate(8,14)"/>
<path d="M0 0 C0.66 0.99 1.32 1.98 2 3 C4.27873018 5.85132754 5.38315293 6.8886608 9.02441406 7.54589844 C10.17651367 7.5668457 11.32861328 7.58779297 12.515625 7.609375 C13.76601563 7.64160156 15.01640625 7.67382812 16.3046875 7.70703125 C17.60664063 7.72121094 18.90859375 7.73539063 20.25 7.75 C21.56742188 7.77964844 22.88484375 7.80929688 24.2421875 7.83984375 C27.49485343 7.91055388 30.74680193 7.96324786 34 8 C34 8.33 34 8.66 34 9 C25.42 9 16.84 9 8 9 C8.7763932 12.0745356 8.7763932 12.0745356 11 14 C10.01 14.495 10.01 14.495 9 15 C7.16015625 14.328125 7.16015625 14.328125 5.0625 13.25 C4.37285156 12.90453125 3.68320313 12.5590625 2.97265625 12.203125 C0.91223095 10.94646957 -0.56366721 9.94796767 -2 8 C-1.79846293 5.15124622 -0.85624823 2.74900747 0 0 Z " fill="#390BCA" transform="translate(6,22)"/>
<path d="M0 0 C0.33 0 0.66 0 1 0 C1.06058594 1.04800781 1.12117188 2.09601562 1.18359375 3.17578125 C1.26801738 4.55470048 1.35266447 5.93360605 1.4375 7.3125 C1.47681641 8.00279297 1.51613281 8.69308594 1.55664062 9.40429688 C1.74927415 12.47161535 2.02322717 15.06968152 3 18 C2.34 19.65 1.68 21.3 1 23 C-10.55 23 -22.1 23 -34 23 C-34.33 22.34 -34.66 21.68 -35 21 C-23.45 21 -11.9 21 0 21 C0 14.07 0 7.14 0 0 Z " fill="#2A0A93" transform="translate(52,14)"/>
<path d="M0 0 C2.01169666 0.013857 4.01872624 -0.02019614 6.0300293 -0.05834961 C7.94138672 -0.05544922 7.94138672 -0.05544922 9.89135742 -0.05249023 C11.05465576 -0.05321533 12.2179541 -0.05394043 13.41650391 -0.0546875 C17.49191317 0.75762902 18.96876126 2.42431542 21.58276367 5.57641602 C22.99277031 8.39642929 22.82824818 10.44648857 22.58276367 13.57641602 C21.20776367 16.45141602 21.20776367 16.45141602 19.58276367 18.57641602 C18.92276367 18.57641602 18.26276367 18.57641602 17.58276367 18.57641602 C17.58276367 17.91641602 17.58276367 17.25641602 17.58276367 16.57641602 C18.24276367 16.57641602 18.90276367 16.57641602 19.58276367 16.57641602 C19.91276367 13.27641602 20.24276367 9.97641602 20.58276367 6.57641602 C19.59276367 6.24641602 18.60276367 5.91641602 17.58276367 5.57641602 C17.14472412 5.07134521 16.70668457 4.56627441 16.25537109 4.04589844 C13.84563097 1.92880227 11.99060931 2.14514306 8.82104492 2.06469727 C7.14365234 2.01152344 7.14365234 2.01152344 5.43237305 1.95727539 C4.26512695 1.9347168 3.09788086 1.9121582 1.89526367 1.88891602 C0.12699219 1.83767578 0.12699219 1.83767578 -1.67700195 1.78540039 C-4.59031858 1.70283676 -7.50333098 1.6337128 -10.41723633 1.57641602 C-10.41723633 2.23641602 -10.41723633 2.89641602 -10.41723633 3.57641602 C-12.39723633 3.90641602 -14.37723633 4.23641602 -16.41723633 4.57641602 C-11.88559707 -1.02255544 -6.74509255 -0.06500699 0 0 Z " fill="#8F7EFD" transform="translate(24.417236328125,9.423583984375)"/>
<path d="M0 0 C2.01719063 -0.00966319 4.03334338 -0.04066593 6.05029297 -0.07226562 C7.97035156 -0.08 7.97035156 -0.08 9.92919922 -0.08789062 C11.68538574 -0.10190918 11.68538574 -0.10190918 13.47705078 -0.11621094 C17.16203504 0.2804329 19.59646782 1.40353054 22.78857422 3.24023438 C21.79857422 3.57023438 20.80857422 3.90023438 19.78857422 4.24023438 C19.29357422 3.74523437 19.29357422 3.74523437 18.78857422 3.24023438 C16.55601303 3.13992432 14.32026186 3.10941979 12.08544922 3.10742188 C11.41064514 3.10646515 10.73584106 3.10550842 10.04058838 3.10452271 C8.60811266 3.10384071 7.17563388 3.10569633 5.74316406 3.10986328 C3.56161428 3.11517824 1.38027352 3.10993629 -0.80126953 3.10351562 C-2.19319707 3.10417705 -3.58512447 3.10545955 -4.97705078 3.10742188 C-6.87632324 3.10911377 -6.87632324 3.10911377 -8.81396484 3.11083984 C-11.75186511 3.22273171 -14.36107255 3.55585056 -17.21142578 4.24023438 C-12.18048433 -1.01938623 -6.99355697 0.02028588 0 0 Z " fill="#2A078D" transform="translate(24.21142578125,2.759765625)"/>
<path d="M0 0 C0 0.66 0 1.32 0 2 C0.99 1.67 1.98 1.34 3 1 C3 1.66 3 2.32 3 3 C5.97 3.495 5.97 3.495 9 4 C9.33 3.01 9.66 2.02 10 1 C10 2.65 10 4.3 10 6 C5.71 6 1.42 6 -3 6 C-3.66 4.68 -4.32 3.36 -5 2 C-7.67790463 1.16113831 -10.1737941 1.18233586 -13 1 C-13 0.67 -13 0.34 -13 0 C-11.39679026 -0.19551338 -9.79237014 -0.38111983 -8.1875 -0.5625 C-7.29417969 -0.66691406 -6.40085938 -0.77132813 -5.48046875 -0.87890625 C-3 -1 -3 -1 0 0 Z " fill="#3D12C7" transform="translate(158,27)"/>
<path d="M0 0 C2.3125 0.125 2.3125 0.125 5 1 C8.3000952 5.95014281 8.26533222 9.71940327 7.6875 15.375 C7.62626953 16.11105469 7.56503906 16.84710937 7.50195312 17.60546875 C7.35004355 19.405013 7.17716201 21.20276611 7 23 C6.67 23 6.34 23 6 23 C5.67 17.06 5.34 11.12 5 5 C3.35 4.67 1.7 4.34 0 4 C-0.33 3.34 -0.66 2.68 -1 2 C-0.67 1.34 -0.34 0.68 0 0 Z " fill="#3406BA" transform="translate(45,7)"/>
<path d="M0 0 C0.33 0 0.66 0 1 0 C1.33 1.65 1.66 3.3 2 5 C2.99 4.67 3.98 4.34 5 4 C5.33 5.32 5.66 6.64 6 8 C6.33 7.34 6.66 6.68 7 6 C7.66 6 8.32 6 9 6 C9.33 5.34 9.66 4.68 10 4 C10 5.65 10 7.3 10 9 C8.68 9.33 7.36 9.66 6 10 C5.34 9.01 4.68 8.02 4 7 C3.01 7 2.02 7 1 7 C-0.6083124 8.86655232 -0.6083124 8.86655232 -2 11 C-2.66 11.66 -3.32 12.32 -4 13 C-3.27991594 8.39146203 -1.68704061 4.32762591 0 0 Z " fill="#5D4CE3" transform="translate(145,12)"/>
<path d="M0 0 C1.66832577 2.50248865 2.62381674 4.41149187 3.625 7.1875 C3.88539063 7.90292969 4.14578125 8.61835938 4.4140625 9.35546875 C4.60742188 9.89816406 4.80078125 10.44085938 5 11 C4.34 11 3.68 11 3 11 C1.98133771 9.34467377 0.98189187 7.67739862 0 6 C-0.66 5.67 -1.32 5.34 -2 5 C-2 5.66 -2 6.32 -2 7 C-4.31 6.67 -6.62 6.34 -9 6 C-9 4.68 -9 3.36 -9 2 C-8.34 2 -7.68 2 -7 2 C-7 2.66 -7 3.32 -7 4 C-6.34 4.33 -5.68 4.66 -5 5 C-4.67 4.34 -4.34 3.68 -4 3 C-3.01 3 -2.02 3 -1 3 C-0.67 2.01 -0.34 1.02 0 0 Z " fill="#522FDB" transform="translate(155,18)"/>
<path d="M0 0 C1.65 0 3.3 0 5 0 C4.67 2.97 4.34 5.94 4 9 C2.68 9.33 1.36 9.66 0 10 C0 6.7 0 3.4 0 0 Z " fill="#6953F8" transform="translate(163,10)"/>
<path d="M0 0 C2.1875 -0.375 2.1875 -0.375 5 0 C7.875 2.75 7.875 2.75 10 6 C9.91011188 9.14608405 8.79354011 10.30968983 7 13 C6.34 12.67 5.68 12.34 5 12 C5.33 11.67 5.66 11.34 6 11 C6.04080783 9.00041636 6.04254356 6.99954746 6 5 C4.02 4.34 2.04 3.68 0 3 C0 2.01 0 1.02 0 0 Z " fill="#929AFD" transform="translate(36,12)"/>
<path d="M0 0 C0.33 0.99 0.66 1.98 1 3 C2.32 3 3.64 3 5 3 C4.67 4.65 4.34 6.3 4 8 C2.02 8 0.04 8 -2 8 C-2.20086443 4.28400809 -2.1519437 3.22791555 0 0 Z " fill="#4018BD" transform="translate(140,25)"/>
<path d="M0 0 C0.33 0 0.66 0 1 0 C1.06058594 1.04800781 1.12117188 2.09601562 1.18359375 3.17578125 C1.26801738 4.55470048 1.35266447 5.93360605 1.4375 7.3125 C1.47681641 8.00279297 1.51613281 8.69308594 1.55664062 9.40429688 C1.74927415 12.47161535 2.02322717 15.06968152 3 18 C2.5625 20.1875 2.5625 20.1875 2 22 C1.34 22 0.68 22 0 22 C0 14.74 0 7.48 0 0 Z " fill="#451F98" transform="translate(52,14)"/>
<path d="M0 0 C2.4375 1.375 2.4375 1.375 3.25 4 C3.311875 4.78375 3.37375 5.5675 3.4375 6.375 C0.7975 5.385 -1.8425 4.395 -4.5625 3.375 C-4.5625 2.385 -4.5625 1.395 -4.5625 0.375 C-2.5625 -0.625 -2.5625 -0.625 0 0 Z " fill="#6961D7" transform="translate(150.5625,8.625)"/>
<path d="M0 0 C-0.33 1.32 -0.66 2.64 -1 4 C-0.34 4.33 0.32 4.66 1 5 C-3.75 6 -3.75 6 -6 6 C-6 7.65 -6 9.3 -6 11 C-6.33 11 -6.66 11 -7 11 C-7.3125 8.3125 -7.3125 8.3125 -7 5 C-2.86956522 0 -2.86956522 0 0 0 Z " fill="#2C0691" transform="translate(7,7)"/>
<path d="M0 0 C0.66 0.99 1.32 1.98 2 3 C3.32381517 4.67423683 4.65576661 6.34211215 6 8 C3.6875 8.6875 3.6875 8.6875 1 9 C-0.8125 7.5625 -0.8125 7.5625 -2 6 C-1.34 4.02 -0.68 2.04 0 0 Z " fill="#4313D4" transform="translate(6,22)"/>
<path d="M0 0 C3.45015205 4.60020273 3.22331682 6.88234832 2.6875 12.25 C2.62626953 12.99507812 2.56503906 13.74015625 2.50195312 14.5078125 C2.3492857 16.33982155 2.17660246 18.17014316 2 20 C1.67 20 1.34 20 1 20 C0.67 13.4 0.34 6.8 0 0 Z " fill="#3B0EBE" transform="translate(50,10)"/>
<path d="M0 0 C0.33 0 0.66 0 1 0 C1.33 2.31 1.66 4.62 2 7 C1.34 7 0.68 7 0 7 C-0.99 8.98 -1.98 10.96 -3 13 C-4.23593891 9.29218328 -3.5678132 8.32489747 -2.0625 4.8125 C-1.68222656 3.91144531 -1.30195313 3.01039062 -0.91015625 2.08203125 C-0.60980469 1.39496094 -0.30945313 0.70789062 0 0 Z " fill="#634FD1" transform="translate(145,12)"/>
<path d="M0 0 C0.99 0.33 1.98 0.66 3 1 C2.34 2.98 1.68 4.96 1 7 C0.01 6.67 -0.98 6.34 -2 6 C-1.34 4.02 -0.68 2.04 0 0 Z " fill="#8B8EEC" transform="translate(10,14)"/>
<path d="M0 0 C0.66 0.66 1.32 1.32 2 2 C1.25 4.4375 1.25 4.4375 0 7 C-1.32 7.33 -2.64 7.66 -4 8 C-2.68 5.36 -1.36 2.72 0 0 Z " fill="#5E39F9" transform="translate(145,18)"/>
<path d="M0 0 C1.65 0 3.3 0 5 0 C4.67 1.32 4.34 2.64 4 4 C2.68 4 1.36 4 0 4 C0 2.68 0 1.36 0 0 Z " fill="#7468F3" transform="translate(163,10)"/>
<path d="" fill="#669999" transform="translate(0,0)"/>
</svg>
